<svg width="295" height="62" viewBox="0 0 295 62" fill="none" xmlns="http://www.w3.org/2000/svg">
<path d="M272.805 48.7387L278.023 24.0962H285.429L284.964 26.2856C285.864 25.4161 286.842 24.7639 287.898 24.3291C288.985 23.8633 290.119 23.6304 291.299 23.6304C292.759 23.6304 293.83 23.8943 294.513 24.4223L293.162 30.9439C292.852 30.6955 292.308 30.4781 291.532 30.2918C290.787 30.1054 290.072 30.0123 289.389 30.0123C287.091 30.0123 285.15 30.9439 283.566 32.8073L280.212 48.7387H272.805Z" fill="#63677A"/>
<path d="M261.023 49.2508C258.569 49.2508 256.38 48.7539 254.454 47.7601C252.56 46.7353 251.069 45.3378 249.982 43.5676C248.896 41.7664 248.352 39.7322 248.352 37.4652C248.352 35.6019 248.694 33.8472 249.377 32.2013C250.091 30.5243 251.069 29.0492 252.312 27.7759C253.554 26.5026 254.982 25.5088 256.597 24.7946C258.243 24.0803 259.998 23.7231 261.861 23.7231C264.097 23.7231 266.069 24.2356 267.777 25.2604C269.485 26.2852 270.821 27.6982 271.783 29.4995C272.746 31.2696 273.227 33.3348 273.227 35.695C273.227 36.0366 273.212 36.4248 273.181 36.8596C273.15 37.2944 273.072 37.9931 272.948 38.9559H255.712C255.961 39.7633 256.364 40.4776 256.923 41.0987C257.482 41.7198 258.15 42.2012 258.926 42.5428C259.734 42.8844 260.634 43.0552 261.628 43.0552C262.622 43.0552 263.523 42.9154 264.33 42.6359C265.169 42.3254 265.898 41.8906 266.519 41.3316L270.665 46.0365C269.113 47.1856 267.575 48.0085 266.054 48.5054C264.563 49.0023 262.886 49.2508 261.023 49.2508ZM256.131 33.7385H266.287C266.069 32.9622 265.728 32.2945 265.262 31.7355C264.827 31.1454 264.283 30.6951 263.631 30.3845C263.01 30.074 262.311 29.9187 261.535 29.9187C260.728 29.9187 259.982 30.0895 259.299 30.4311C258.616 30.7417 257.995 31.1765 257.436 31.7355C256.908 32.2945 256.473 32.9622 256.131 33.7385Z" fill="#63677A"/>
<path d="M222.647 58.7073C221.87 58.7073 221.14 58.6607 220.457 58.5675C219.774 58.4744 219.122 58.3501 218.501 58.1949L219.852 51.813C220.162 51.9061 220.519 51.9682 220.923 51.9993C221.296 52.0614 221.73 52.0925 222.227 52.0925C223.345 52.0925 224.339 51.8596 225.209 51.3937C226.078 50.9279 226.808 50.1981 227.398 49.2043L227.678 48.7385L223.625 24.0959H231.497L233.64 40.2137L243.423 24.0959H251.482L234.386 51.3006C232.74 53.9403 231.001 55.8347 229.168 56.9837C227.336 58.1328 225.162 58.7073 222.647 58.7073Z" fill="#63677A"/>
<path d="M205.513 48.9712C202.966 48.9712 200.932 48.3501 199.411 47.1079C197.92 45.8657 197.175 44.2042 197.175 42.1235C197.175 40.4154 197.594 38.9558 198.432 37.7447C199.271 36.5335 200.466 35.6018 202.019 34.9497C203.603 34.2975 205.482 33.9714 207.656 33.9714C208.712 33.9714 209.768 34.0646 210.823 34.2509C211.91 34.4062 212.951 34.6391 213.945 34.9497L214.084 34.2509C214.395 32.7913 214.146 31.7044 213.339 30.9901C212.563 30.2447 211.243 29.8721 209.379 29.8721C208.541 29.8721 207.578 29.9963 206.491 30.2448C205.435 30.4621 204.131 30.8348 202.578 31.3627L200.808 25.7728C202.702 25.0585 204.504 24.5305 206.212 24.1889C207.92 23.8473 209.535 23.6765 211.056 23.6765C213.665 23.6765 215.808 24.0958 217.485 24.9343C219.193 25.7728 220.389 26.9839 221.072 28.5678C221.755 30.1205 221.864 31.9994 221.398 34.2043L218.323 48.7383H211.01L211.289 47.3874C210.327 47.9464 209.379 48.3501 208.448 48.5985C207.516 48.847 206.538 48.9712 205.513 48.9712ZM208.168 43.7539C208.914 43.7539 209.628 43.6762 210.311 43.521C210.994 43.3346 211.646 43.0862 212.268 42.7756L212.966 39.5614C211.413 39.0645 209.876 38.8161 208.355 38.8161C207.019 38.8161 205.979 39.049 205.233 39.5148C204.519 39.9806 204.162 40.6483 204.162 41.5179C204.162 42.2011 204.519 42.7446 205.233 43.1483C205.948 43.552 206.926 43.7539 208.168 43.7539Z" fill="#63677A"/>
<path d="M186.002 48.7387L192.943 16.1304L200.676 14.5L193.409 48.7387H186.002Z" fill="#63677A"/>
<path d="M174.22 49.2508C171.766 49.2508 169.577 48.7539 167.651 47.7601C165.757 46.7353 164.266 45.3378 163.179 43.5676C162.093 41.7664 161.549 39.7322 161.549 37.4652C161.549 35.6019 161.891 33.8472 162.574 32.2013C163.288 30.5243 164.266 29.0492 165.509 27.7759C166.751 26.5026 168.179 25.5088 169.794 24.7946C171.44 24.0803 173.195 23.7231 175.058 23.7231C177.294 23.7231 179.266 24.2356 180.974 25.2604C182.682 26.2852 184.018 27.6982 184.98 29.4995C185.943 31.2696 186.424 33.3348 186.424 35.695C186.424 36.0366 186.409 36.4248 186.378 36.8596C186.347 37.2944 186.269 37.9931 186.145 38.9559H168.909C169.158 39.7633 169.561 40.4776 170.12 41.0987C170.679 41.7198 171.347 42.2012 172.123 42.5428C172.931 42.8844 173.832 43.0552 174.825 43.0552C175.819 43.0552 176.72 42.9154 177.527 42.6359C178.366 42.3254 179.095 41.8906 179.717 41.3316L183.862 46.0365C182.31 47.1856 180.772 48.0085 179.251 48.5054C177.76 49.0023 176.083 49.2508 174.22 49.2508ZM169.328 33.7385H179.484C179.266 32.9622 178.925 32.2945 178.459 31.7355C178.024 31.1454 177.481 30.6951 176.828 30.3845C176.207 30.074 175.508 29.9187 174.732 29.9187C173.925 29.9187 173.179 30.0895 172.496 30.4311C171.813 30.7417 171.192 31.1765 170.633 31.7355C170.105 32.2945 169.67 32.9622 169.328 33.7385Z" fill="#212846"/>
<path d="M150.489 49.2511C148.221 49.2511 146.187 48.7543 144.386 47.7605C142.585 46.7357 141.156 45.3382 140.1 43.568C139.076 41.7978 138.563 39.7948 138.563 37.5588C138.563 35.6333 138.905 33.8321 139.588 32.1551C140.302 30.4471 141.281 28.9564 142.523 27.6831C143.765 26.4098 145.209 25.4161 146.855 24.7018C148.501 23.9875 150.271 23.6304 152.166 23.6304C154.308 23.6304 156.28 24.0807 158.082 24.9813C159.914 25.8819 161.389 27.1396 162.507 28.7545L157.476 33.3197C156.793 32.2327 156.001 31.4408 155.1 30.9439C154.231 30.447 153.221 30.1986 152.072 30.1986C151.234 30.1986 150.442 30.3849 149.697 30.7576C148.951 31.0992 148.284 31.5961 147.694 32.2483C147.135 32.8694 146.7 33.5992 146.389 34.4377C146.079 35.2762 145.923 36.1768 145.923 37.1395C145.923 38.2575 146.141 39.2358 146.576 40.0743C147.041 40.9127 147.678 41.5649 148.485 42.0307C149.293 42.4966 150.225 42.7295 151.28 42.7295C152.243 42.7295 153.128 42.5432 153.936 42.1705C154.774 41.7668 155.613 41.1612 156.451 40.3538L160.271 45.245C157.445 47.9158 154.184 49.2511 150.489 49.2511Z" fill="#212846"/>
<path d="M121.349 48.9712C118.802 48.9712 116.768 48.3501 115.246 47.1079C113.756 45.8657 113.01 44.2042 113.01 42.1235C113.01 40.4154 113.43 38.9558 114.268 37.7447C115.106 36.5335 116.302 35.6018 117.855 34.9497C119.439 34.2975 121.318 33.9714 123.491 33.9714C124.547 33.9714 125.603 34.0646 126.659 34.2509C127.746 34.4062 128.786 34.6391 129.78 34.9497L129.92 34.2509C130.231 32.7913 129.982 31.7044 129.175 30.9901C128.398 30.2447 127.078 29.8721 125.215 29.8721C124.377 29.8721 123.414 29.9963 122.327 30.2448C121.271 30.4621 119.967 30.8348 118.414 31.3627L116.644 25.7728C118.538 25.0585 120.339 24.5305 122.047 24.1889C123.755 23.8473 125.37 23.6765 126.892 23.6765C129.501 23.6765 131.644 24.0958 133.321 24.9343C135.029 25.7728 136.224 26.9839 136.907 28.5678C137.591 30.1205 137.699 31.9994 137.234 34.2043L134.159 48.7383H126.845L127.125 47.3874C126.162 47.9464 125.215 48.3501 124.283 48.5985C123.352 48.847 122.373 48.9712 121.349 48.9712ZM124.004 43.7539C124.749 43.7539 125.463 43.6762 126.147 43.521C126.83 43.3346 127.482 43.0862 128.103 42.7756L128.802 39.5614C127.249 39.0645 125.712 38.8161 124.19 38.8161C122.855 38.8161 121.814 39.049 121.069 39.5148C120.355 39.9806 119.998 40.6483 119.998 41.5179C119.998 42.2011 120.355 42.7446 121.069 43.1483C121.783 43.552 122.762 43.7539 124.004 43.7539Z" fill="#212846"/>
<path d="M94.6047 48.7387L99.8221 24.0962H107.229L106.763 26.2856C107.664 25.4161 108.642 24.7639 109.698 24.3291C110.785 23.8633 111.918 23.6304 113.098 23.6304C114.558 23.6304 115.629 23.8943 116.312 24.4223L114.962 30.9439C114.651 30.6955 114.108 30.4781 113.331 30.2918C112.586 30.1054 111.872 30.0123 111.188 30.0123C108.89 30.0123 106.949 30.9439 105.365 32.8073L102.011 48.7387H94.6047Z" fill="#212846"/>
<path d="M88.1085 49.0179C85.1583 49.0179 83.031 48.3191 81.7267 46.9216C80.4534 45.4931 80.0962 43.459 80.6552 40.8192L82.8912 30.3846H78L79.3043 24.0959H84.1956L85.5465 17.7605L93.2793 16.1301L91.5557 24.0959H98.3103L97.0059 30.3846H90.2514L88.2483 39.6547C88.0309 40.7727 88.1396 41.5801 88.5744 42.077C89.0402 42.5739 89.8942 42.8223 91.1365 42.8223C91.6644 42.8223 92.1613 42.7913 92.6271 42.7292C93.124 42.667 93.6519 42.5739 94.2109 42.4497L92.9066 48.5055C92.3166 48.6297 91.5557 48.7384 90.624 48.8316C89.7234 48.9558 88.8849 49.0179 88.1085 49.0179Z" fill="#212846"/>
<path d="M0 12.5L12.5 0L25 12.5L12.5 25L0 12.5Z" fill="#001D91"/>
<path d="M37.5 0H12.5L25 12.5L37.5 0Z" fill="#00A1FF"/>
<path d="M50 37L25 12.5L37.5 0L62.5 24.5L50 37Z" fill="#00A1FF"/>
<path d="M62.5 49L50 61.5L37.5 49L50 36.5L62.5 49Z" fill="#001D91"/>
<path d="M25 61.5L50 61.5L37.5 49L25 61.5Z" fill="#00A1FF"/>
<path d="M12.5 24.5L37.5 49L25 61.5L2.14186e-06 37L12.5 24.5Z" fill="#00A1FF"/>
</svg>
