<svg width="110" height="72" viewBox="0 0 110 72" fill="none" xmlns="http://www.w3.org/2000/svg">
<rect width="109.623" height="71.3896" fill="#C6FF00"/>
<path d="M37.1924 21.7988H66.3848V35.7314H80.9805V36.043C80.9805 51.1459 68.156 63.3896 52.3359 63.3896H51.2412C35.421 63.3896 22.5957 51.146 22.5957 36.043V35.7334H8V21.7988H22.5957V8H37.1924V21.7988ZM37.1924 36.043C37.1924 43.4502 43.4823 49.4551 51.2412 49.4551H52.3359C60.0948 49.455 66.3848 43.4501 66.3848 36.043V35.7334H59.0859C59.0682 39.5668 55.8077 42.6689 51.7881 42.6689C47.7687 42.6687 44.509 39.5667 44.4912 35.7334H37.1924V36.043ZM101.623 29.001L91.3018 38.8545L80.9805 29.001L91.3018 19.1475L101.623 29.001ZM46.9141 33.4287C45.5814 33.4287 44.5012 34.4602 44.501 35.7324C44.501 37.0048 45.5812 38.0371 46.9141 38.0371C48.2468 38.0371 49.3271 37.0048 49.3271 35.7324C49.3269 34.4603 48.2467 33.4288 46.9141 33.4287Z" fill="#0E111E"/>
</svg>
