<svg width="360" height="72" viewBox="0 0 360 72" fill="none" xmlns="http://www.w3.org/2000/svg">
<rect width="109.623" height="71.3896" fill="#B6FF00"/>
<path d="M37.1924 21.7988H66.3848V35.7314H80.9805V36.043C80.9805 51.1459 68.156 63.3896 52.3359 63.3896H51.2412C35.421 63.3896 22.5957 51.146 22.5957 36.043V35.7334H8V21.7988H22.5957V8H37.1924V21.7988ZM37.1924 36.043C37.1924 43.4502 43.4823 49.4551 51.2412 49.4551H52.3359C60.0948 49.455 66.3848 43.4501 66.3848 36.043V35.7334H59.0859C59.0682 39.5668 55.8077 42.6689 51.7881 42.6689C47.7687 42.6687 44.509 39.5667 44.4912 35.7334H37.1924V36.043ZM101.623 29.001L91.3018 38.8545L80.9805 29.001L91.3018 19.1475L101.623 29.001ZM46.9141 33.4287C45.5814 33.4287 44.5012 34.4602 44.501 35.7324C44.501 37.0048 45.5812 38.0371 46.9141 38.0371C48.2468 38.0371 49.3271 37.0048 49.3271 35.7324C49.3269 34.4603 48.2467 33.4288 46.9141 33.4287Z" fill="#0B1020"/>
<path d="M358.913 30V35.625H343.772V30H358.913ZM346.944 24.25H354.585V46.4531C354.585 46.9218 354.658 47.302 354.804 47.5937C354.96 47.8749 355.184 48.0781 355.476 48.2031C355.767 48.3176 356.116 48.3749 356.522 48.3749C356.814 48.3749 357.121 48.3489 357.444 48.2968C357.778 48.2343 358.028 48.1822 358.194 48.1406L359.351 53.6562C358.986 53.7603 358.47 53.8905 357.804 54.0468C357.147 54.203 356.361 54.302 355.444 54.3437C353.653 54.427 352.116 54.2187 350.835 53.7187C349.564 53.2083 348.59 52.4166 347.913 51.3437C347.246 50.2708 346.924 48.9218 346.944 47.2968V24.25Z" fill="#B6FF00"/>
<path d="M327.32 40.3125V53.9999H319.68V30H326.945V34.4062H327.211C327.742 32.9375 328.648 31.7865 329.93 30.9531C331.211 30.1094 332.737 29.6875 334.508 29.6875C336.195 29.6875 337.659 30.0677 338.898 30.8281C340.148 31.5781 341.117 32.6302 341.805 33.9844C342.503 35.3281 342.846 36.901 342.836 38.7031V53.9999H335.195V40.2031C335.206 38.8698 334.867 37.8281 334.18 37.0781C333.503 36.3281 332.56 35.9531 331.352 35.9531C330.55 35.9531 329.841 36.1302 329.227 36.4844C328.622 36.8281 328.154 37.3229 327.82 37.9687C327.497 38.6146 327.331 39.3958 327.32 40.3125Z" fill="#B6FF00"/>
<path d="M306.586 54.4531C304.076 54.4531 301.909 53.9583 300.086 52.9687C298.273 51.9687 296.878 50.5468 295.898 48.7031C294.93 46.8489 294.445 44.6458 294.445 42.0937C294.445 39.6146 294.935 37.4479 295.914 35.5937C296.893 33.7292 298.273 32.2812 300.055 31.25C301.836 30.2083 303.935 29.6875 306.352 29.6875C308.06 29.6875 309.622 29.9531 311.039 30.4844C312.456 31.0156 313.68 31.8021 314.711 32.8437C315.742 33.8854 316.544 35.1719 317.117 36.7031C317.69 38.2239 317.977 39.9687 317.977 41.9375V43.8437H297.117V39.4062H310.867C310.857 38.5937 310.664 37.8698 310.289 37.2344C309.914 36.5989 309.398 36.1042 308.742 35.75C308.096 35.3854 307.352 35.2031 306.508 35.2031C305.654 35.2031 304.888 35.3958 304.211 35.7812C303.534 36.1562 302.997 36.6719 302.602 37.3281C302.206 37.9739 301.997 38.7083 301.977 39.5312V44.0468C301.977 45.026 302.169 45.8854 302.555 46.625C302.94 47.3541 303.487 47.9218 304.195 48.3281C304.904 48.7343 305.747 48.9375 306.727 48.9375C307.404 48.9375 308.018 48.8437 308.57 48.6562C309.122 48.4687 309.596 48.1927 309.992 47.8281C310.388 47.4635 310.685 47.0156 310.883 46.4843L317.898 46.6875C317.607 48.2604 316.966 49.6302 315.977 50.7968C314.997 51.9531 313.711 52.8541 312.117 53.4999C310.523 54.1354 308.68 54.4531 306.586 54.4531Z" fill="#B6FF00"/>
<path d="M280.523 63.4999C278.242 63.4999 276.289 63.1822 274.664 62.5468C273.039 61.9114 271.763 61.0416 270.836 59.9374C269.909 58.8333 269.352 57.5833 269.164 56.1874L276.398 55.7812C276.534 56.2708 276.784 56.6979 277.148 57.0624C277.523 57.427 278.008 57.7083 278.602 57.9062C279.206 58.1041 279.914 58.2031 280.727 58.2031C282.008 58.2031 283.065 57.8906 283.898 57.2656C284.742 56.651 285.164 55.5729 285.164 54.0312V49.8125H284.898C284.596 50.552 284.138 51.2135 283.523 51.7968C282.909 52.3802 282.143 52.8385 281.227 53.1718C280.32 53.5052 279.279 53.6718 278.102 53.6718C276.352 53.6718 274.747 53.2656 273.289 52.4531C271.841 51.6302 270.68 50.3593 269.805 48.6406C268.94 46.9114 268.508 44.6875 268.508 41.9687C268.508 39.1666 268.956 36.8594 269.852 35.0469C270.747 33.2239 271.919 31.875 273.367 31C274.826 30.125 276.393 29.6875 278.07 29.6875C279.331 29.6875 280.409 29.9063 281.305 30.3437C282.211 30.7708 282.956 31.3229 283.539 32C284.122 32.6771 284.565 33.3802 284.867 34.1094H285.086V30H292.695V54.0937C292.695 56.1249 292.185 57.8385 291.164 59.2343C290.143 60.6301 288.716 61.6874 286.883 62.4062C285.05 63.1353 282.93 63.4999 280.523 63.4999ZM280.758 48.1093C281.685 48.1093 282.477 47.8645 283.133 47.375C283.789 46.8854 284.294 46.1823 284.648 45.2656C285.003 44.3489 285.18 43.25 285.18 41.9687C285.18 40.6666 285.003 39.5469 284.648 38.6094C284.305 37.6614 283.8 36.9323 283.133 36.4219C282.477 35.9114 281.685 35.6562 280.758 35.6562C279.81 35.6562 279.008 35.9167 278.352 36.4375C277.695 36.9583 277.195 37.6927 276.852 38.6406C276.518 39.5781 276.352 40.6875 276.352 41.9687C276.352 43.25 276.523 44.3489 276.867 45.2656C277.211 46.1823 277.706 46.8854 278.352 47.375C279.008 47.8645 279.81 48.1093 280.758 48.1093Z" fill="#B6FF00"/>
<path d="M246.018 53.9999H237.705L248.502 22H258.799L269.596 53.9999H261.283L253.768 30.0625H253.518L246.018 53.9999ZM244.908 41.4062H262.283V47.2812H244.908V41.4062Z" fill="#B6FF00"/>
<path d="M226.003 54.4531C223.493 54.4531 221.326 53.9583 219.503 52.9687C217.69 51.9687 216.295 50.5468 215.315 48.7031C214.347 46.8489 213.862 44.6458 213.862 42.0937C213.862 39.6146 214.352 37.4479 215.331 35.5937C216.31 33.7292 217.69 32.2812 219.472 31.25C221.253 30.2083 223.352 29.6875 225.769 29.6875C227.477 29.6875 229.039 29.9531 230.456 30.4844C231.873 31.0156 233.097 31.8021 234.128 32.8437C235.159 33.8854 235.961 35.1719 236.534 36.7031C237.107 38.2239 237.394 39.9687 237.394 41.9375V43.8437H216.534V39.4062H230.284C230.274 38.5937 230.081 37.8698 229.706 37.2344C229.331 36.5989 228.815 36.1042 228.159 35.75C227.513 35.3854 226.769 35.2031 225.925 35.2031C225.071 35.2031 224.305 35.3958 223.628 35.7812C222.951 36.1562 222.414 36.6719 222.019 37.3281C221.623 37.9739 221.414 38.7083 221.394 39.5312V44.0468C221.394 45.026 221.586 45.8854 221.972 46.625C222.357 47.3541 222.904 47.9218 223.612 48.3281C224.321 48.7343 225.164 48.9375 226.144 48.9375C226.821 48.9375 227.435 48.8437 227.987 48.6562C228.539 48.4687 229.013 48.1927 229.409 47.8281C229.805 47.4635 230.102 47.0156 230.3 46.4843L237.315 46.6875C237.024 48.2604 236.383 49.6302 235.394 50.7968C234.414 51.9531 233.128 52.8541 231.534 53.4999C229.94 54.1354 228.097 54.4531 226.003 54.4531Z" fill="white"/>
<path d="M201.934 54.4531C199.402 54.4531 197.23 53.9322 195.418 52.8906C193.616 51.8489 192.23 50.401 191.262 48.5468C190.293 46.6823 189.809 44.526 189.809 42.0781C189.809 39.6198 190.293 37.4635 191.262 35.6094C192.241 33.7448 193.632 32.2917 195.434 31.25C197.246 30.2083 199.408 29.6875 201.918 29.6875C204.137 29.6875 206.069 30.0885 207.715 30.8906C209.371 31.6927 210.663 32.8281 211.59 34.2969C212.527 35.7552 213.022 37.4687 213.074 39.4375H205.934C205.788 38.2083 205.371 37.2448 204.684 36.5469C204.007 35.8489 203.121 35.5 202.027 35.5C201.142 35.5 200.366 35.75 199.699 36.25C199.033 36.7396 198.512 37.4687 198.137 38.4375C197.772 39.3958 197.59 40.5833 197.59 42C197.59 43.4166 197.772 44.6145 198.137 45.5937C198.512 46.5625 199.033 47.2968 199.699 47.7968C200.366 48.2864 201.142 48.5312 202.027 48.5312C202.736 48.5312 203.361 48.3802 203.902 48.0781C204.454 47.776 204.908 47.3333 205.262 46.75C205.616 46.1562 205.84 45.4375 205.934 44.5937H213.074C213.001 46.5729 212.507 48.302 211.59 49.7812C210.684 51.2604 209.408 52.4114 207.762 53.2343C206.126 54.0468 204.184 54.4531 201.934 54.4531Z" fill="white"/>
<path d="M173.914 54.4062C172.383 54.4062 171.023 54.151 169.836 53.6406C168.659 53.1197 167.727 52.3385 167.039 51.2968C166.362 50.2447 166.023 48.927 166.023 47.3437C166.023 46.0104 166.258 44.8854 166.727 43.9687C167.195 43.0521 167.841 42.3073 168.664 41.7343C169.487 41.1614 170.435 40.7291 171.508 40.4375C172.581 40.1354 173.727 39.9323 174.945 39.8281C176.31 39.7031 177.409 39.5729 178.242 39.4375C179.076 39.2916 179.68 39.0885 180.055 38.8281C180.44 38.5573 180.633 38.1771 180.633 37.6875V37.6094C180.633 36.8073 180.357 36.1875 179.805 35.75C179.253 35.3125 178.508 35.0937 177.57 35.0937C176.56 35.0937 175.747 35.3125 175.133 35.75C174.518 36.1875 174.128 36.7917 173.961 37.5625L166.914 37.3125C167.122 35.8542 167.659 34.5521 168.523 33.4062C169.398 32.25 170.596 31.3437 172.117 30.6875C173.648 30.0208 175.487 29.6875 177.633 29.6875C179.164 29.6875 180.576 29.8698 181.867 30.2344C183.159 30.5885 184.284 31.1094 185.242 31.7969C186.201 32.474 186.94 33.3073 187.461 34.2969C187.992 35.2864 188.258 36.4167 188.258 37.6875V53.9999H181.07V50.6562H180.883C180.456 51.4687 179.909 52.1562 179.242 52.7187C178.586 53.2812 177.81 53.7031 176.914 53.9843C176.029 54.2656 175.029 54.4062 173.914 54.4062ZM176.273 49.4062C177.096 49.4062 177.836 49.2395 178.492 48.9062C179.159 48.5729 179.69 48.1145 180.086 47.5312C180.482 46.9375 180.68 46.25 180.68 45.4687V43.1875C180.461 43.3021 180.195 43.4062 179.883 43.5C179.581 43.5937 179.247 43.6823 178.883 43.7656C178.518 43.8489 178.143 43.9218 177.758 43.9843C177.372 44.0468 177.003 44.1041 176.648 44.1562C175.93 44.2708 175.315 44.4479 174.805 44.6875C174.305 44.927 173.919 45.2395 173.648 45.625C173.388 46 173.258 46.4479 173.258 46.9687C173.258 47.7604 173.539 48.3645 174.102 48.7812C174.674 49.1979 175.398 49.4062 176.273 49.4062Z" fill="white"/>
<path d="M151.731 53.9999V30H159.153V34.375H159.403C159.841 32.7917 160.554 31.6146 161.544 30.8437C162.534 30.0625 163.685 29.6719 164.997 29.6719C165.351 29.6719 165.716 29.6979 166.091 29.75C166.466 29.7917 166.815 29.8594 167.138 29.9531V36.5937C166.773 36.4687 166.294 36.3698 165.7 36.2969C165.117 36.2239 164.596 36.1875 164.138 36.1875C163.231 36.1875 162.414 36.3906 161.685 36.7969C160.966 37.1927 160.398 37.75 159.981 38.4687C159.575 39.1771 159.372 40.0104 159.372 40.9687V53.9999H151.731Z" fill="white"/>
<path d="M125.6 28.2812V22H152.647V28.2812H142.943V53.9999H135.318V28.2812H125.6Z" fill="white"/>
</svg>
